<svg width="280" height="280" viewBox="0 0 280 280" fill="none" xmlns="http://www.w3.org/2000/svg">
<g filter="url(#filter0_dd_756_537)">
<path d="M12 57C12 30.4903 33.4903 9 60 9H220C246.51 9 268 30.4903 268 57V217C268 243.51 246.51 265 220 265H60C33.4903 265 12 243.51 12 217V57Z" fill="url(#paint0_linear_756_537)"/>
<path d="M12 57C12 30.4903 33.4903 9 60 9H220C246.51 9 268 30.4903 268 57V217C268 243.51 246.51 265 220 265H60C33.4903 265 12 243.51 12 217V57Z" fill="white" fill-opacity="0.2"/>
<path d="M12 57C12 30.4903 33.4903 9 60 9H220C246.51 9 268 30.4903 268 57V217C268 243.51 246.51 265 220 265H60C33.4903 265 12 243.51 12 217V57Z" fill="url(#paint1_radial_756_537)" fill-opacity="0.1" style="mix-blend-mode:plus-lighter"/>
</g>
<g filter="url(#filter1_dd_756_537)">
<path d="M220 261V265H60V261H220ZM264 217V57C264 32.6995 244.301 13 220 13H60C35.6995 13 16 32.6995 16 57V217C16 241.301 35.6995 261 60 261V265L59.3799 264.996C33.156 264.664 12 243.303 12 217V57C12 30.4903 33.4903 9 60 9H220C246.51 9 268 30.4903 268 57V217C268 243.51 246.51 265 220 265V261C244.301 261 264 241.301 264 217Z" fill="#77FAF6" fill-opacity="0.75" style="mix-blend-mode:hard-light" shape-rendering="crispEdges"/>
<path d="M220 261V265H60V261H220ZM264 217V57C264 32.6995 244.301 13 220 13H60C35.6995 13 16 32.6995 16 57V217C16 241.301 35.6995 261 60 261V265L59.3799 264.996C33.156 264.664 12 243.303 12 217V57C12 30.4903 33.4903 9 60 9H220C246.51 9 268 30.4903 268 57V217C268 243.51 246.51 265 220 265V261C244.301 261 264 241.301 264 217Z" fill="white" fill-opacity="0.5" shape-rendering="crispEdges"/>
</g>
<g filter="url(#filter2_d_756_537)">
<path d="M180.886 131.496C181.071 131.496 181.297 131.841 181.389 132.265C181.478 132.689 182.19 136.958 182.967 141.75C183.74 146.541 184.708 151.388 185.112 152.516C185.516 153.644 186.385 155.479 187.042 156.593C187.699 157.707 189.16 159.57 190.29 160.732C191.419 161.894 193.192 163.388 194.225 164.051C195.259 164.717 196.956 165.603 197.989 166.016C199.023 166.43 203.126 167.486 207.102 168.357C211.078 169.232 214.466 170.063 214.63 170.203C214.795 170.343 214.849 170.531 214.757 170.616C214.665 170.702 211.123 171.543 206.886 172.486C200.587 173.888 198.657 174.458 196.278 175.634C194.003 176.762 192.774 177.671 190.625 179.831C188.781 181.687 187.47 183.379 186.639 184.985C185.954 186.301 185.14 188.147 184.821 189.087C184.506 190.027 183.572 196.1 182.744 202.587C181.916 209.074 181.16 214.457 181.06 214.549C180.961 214.641 180.763 214.59 180.623 214.43C180.482 214.271 179.733 208.964 178.963 202.638C178.19 196.312 177.286 190.29 176.951 189.257C176.619 188.225 175.791 186.301 175.113 184.985C174.282 183.368 172.992 181.697 171.133 179.831C168.984 177.671 167.759 176.762 165.48 175.637C163.116 174.472 161.131 173.877 154.872 172.476C150.641 171.526 147.1 170.682 147.002 170.603C146.909 170.524 146.909 170.381 147.002 170.282C147.098 170.186 150.485 169.355 154.53 168.439C158.575 167.527 162.736 166.437 163.769 166.02C164.803 165.603 166.5 164.717 167.533 164.051C168.567 163.388 170.339 161.894 171.469 160.739C172.598 159.58 174.104 157.642 174.815 156.429C175.527 155.216 176.413 153.223 176.783 152.003C177.156 150.783 178.073 146.015 178.826 141.408C179.579 136.801 180.273 132.689 180.369 132.265C180.469 131.841 180.698 131.496 180.886 131.496Z" fill="white"/>
<path d="M113.253 65.5949C113.612 65.595 113.831 66.2376 114.033 67.902C114.19 69.1703 115.234 76.4398 116.356 84.051C117.475 91.6658 118.697 98.9697 119.067 100.286C119.44 101.602 120.23 103.755 120.822 105.071C121.417 106.387 122.557 108.465 123.358 109.685C124.155 110.905 125.531 112.751 126.417 113.786C127.3 114.822 128.98 116.486 130.15 117.484C131.321 118.486 133.511 120.068 135.016 120.998C136.522 121.927 138.986 123.165 140.492 123.746C142.001 124.327 148.373 125.933 154.693 127.324C160.995 128.714 166.186 129.848 166.242 129.85C166.29 129.85 166.328 130.041 166.328 130.277C166.328 130.561 162.666 131.501 155.463 133.07C149.488 134.372 143.596 135.77 142.374 136.177C141.152 136.587 139.147 137.4 137.925 137.984C136.704 138.572 134.777 139.659 133.648 140.401C132.519 141.143 130.527 142.725 129.223 143.918C127.916 145.111 125.935 147.315 124.819 148.819C123.703 150.323 122.324 152.476 121.753 153.604C121.185 154.732 120.343 156.656 119.884 157.876C119.426 159.096 118.837 161.021 118.574 162.149C118.314 163.277 117.085 172.351 115.85 182.314C114.611 192.273 113.568 200.453 113.53 200.493C113.489 200.531 113.294 200.455 113.092 200.322C112.886 200.191 111.771 192.238 110.59 182.485C109.314 171.968 108.12 163.509 107.62 161.465C107.124 159.445 106.097 156.649 105.105 154.629C104.181 152.75 102.668 150.21 101.744 148.99C100.817 147.77 99.2975 145.999 98.3667 145.059C97.4325 144.119 95.7525 142.636 94.6267 141.765C93.5043 140.893 91.4304 139.553 90.0172 138.791C88.6073 138.029 86.4516 137.027 85.2266 136.566C84.0049 136.105 77.9205 134.611 71.7096 133.248C65.499 131.884 60.3114 130.602 60.1808 130.394C60.0475 130.189 59.9722 129.994 60.0096 129.96C60.0438 129.929 65.0024 128.814 71.0251 127.488C77.0478 126.162 83.0533 124.713 84.3708 124.265C85.6883 123.818 87.7688 122.949 88.9905 122.334C90.2121 121.716 92.1389 120.584 93.2682 119.815C94.3974 119.046 96.3788 117.413 97.6688 116.186C98.9589 114.962 100.752 112.956 101.652 111.736C102.555 110.516 103.832 108.512 104.496 107.292C105.16 106.072 106.159 103.765 106.717 102.166C107.274 100.57 107.966 97.8763 108.253 96.1845C108.541 94.4927 109.67 86.9187 110.765 79.3516C112.342 68.4317 112.856 65.5949 113.253 65.5949Z" fill="white"/>
<path d="M192.85 59.4052C193.165 59.4057 193.62 61.8838 194.462 68.2061C195.218 73.8967 195.923 77.851 196.45 79.3994C196.898 80.7152 198.031 82.9334 198.965 84.3313C199.899 85.7292 201.353 87.462 202.202 88.1832C203.051 88.9078 204.741 90.0051 205.966 90.6237C207.362 91.3312 210.384 92.278 214.093 93.1768C217.813 94.079 219.996 94.7659 220 95.036C220.003 95.3094 217.981 95.9383 214.439 96.7654C210.884 97.5959 207.948 98.5086 206.308 99.2947C204.437 100.19 203.088 101.181 201.329 102.948C199.639 104.647 198.534 106.148 197.651 107.939C196.953 109.347 196.149 111.503 195.858 112.723C195.57 113.944 194.838 119.47 194.232 125C193.63 130.527 192.98 135.103 192.791 135.168C192.583 135.239 191.997 131.148 191.303 124.771C190.67 118.992 189.938 113.417 189.671 112.382C189.407 111.346 188.62 109.347 187.929 107.939C187.043 106.134 185.954 104.657 184.254 102.952C182.597 101.287 181.092 100.163 179.446 99.3563C177.923 98.6078 174.959 97.685 171.322 96.8203C167.701 95.9625 165.594 95.306 165.59 95.036C165.587 94.7659 167.75 94.0859 171.49 93.1768C175.357 92.2404 178.217 91.3311 179.788 90.545C181.3 89.7863 182.94 88.5765 184.237 87.2641C185.496 85.9858 186.841 84.1331 187.713 82.4618C188.497 80.9648 189.37 78.8186 189.654 77.6907C189.938 76.5628 190.673 71.9862 191.289 67.5225C192.09 61.7293 192.535 59.4052 192.85 59.4052Z" fill="white"/>
</g>
<defs>
<filter id="filter0_dd_756_537" x="0" y="0" width="280" height="280" filterUnits="userSpaceOnUse" color-interpolation-filters="sRGB">
<feFlood flood-opacity="0" result="BackgroundImageFix"/>
<feColorMatrix in="SourceAlpha" type="matrix" values="0 0 0 0 0 0 0 0 0 0 0 0 0 0 0 0 0 0 127 0" result="hardAlpha"/>
<feOffset dy="3"/>
<feGaussianBlur stdDeviation="6"/>
<feComposite in2="hardAlpha" operator="out"/>
<feColorMatrix type="matrix" values="0 0 0 0 0 0 0 0 0 0 0 0 0 0 0 0 0 0 0.25 0"/>
<feBlend mode="normal" in2="BackgroundImageFix" result="effect1_dropShadow_756_537"/>
<feColorMatrix in="SourceAlpha" type="matrix" values="0 0 0 0 0 0 0 0 0 0 0 0 0 0 0 0 0 0 127 0" result="hardAlpha"/>
<feOffset/>
<feGaussianBlur stdDeviation="2"/>
<feComposite in2="hardAlpha" operator="out"/>
<feColorMatrix type="matrix" values="0 0 0 0 0 0 0 0 0 0 0 0 0 0 0 0 0 0 0.15 0"/>
<feBlend mode="normal" in2="effect1_dropShadow_756_537" result="effect2_dropShadow_756_537"/>
<feBlend mode="normal" in="SourceGraphic" in2="effect2_dropShadow_756_537" result="shape"/>
</filter>
<filter id="filter1_dd_756_537" x="0" y="0" width="280" height="280" filterUnits="userSpaceOnUse" color-interpolation-filters="sRGB">
<feFlood flood-opacity="0" result="BackgroundImageFix"/>
<feColorMatrix in="SourceAlpha" type="matrix" values="0 0 0 0 0 0 0 0 0 0 0 0 0 0 0 0 0 0 127 0" result="hardAlpha"/>
<feOffset dy="3"/>
<feGaussianBlur stdDeviation="6"/>
<feComposite in2="hardAlpha" operator="out"/>
<feColorMatrix type="matrix" values="0 0 0 0 0 0 0 0 0 0 0 0 0 0 0 0 0 0 0.25 0"/>
<feBlend mode="normal" in2="BackgroundImageFix" result="effect1_dropShadow_756_537"/>
<feColorMatrix in="SourceAlpha" type="matrix" values="0 0 0 0 0 0 0 0 0 0 0 0 0 0 0 0 0 0 127 0" result="hardAlpha"/>
<feOffset/>
<feGaussianBlur stdDeviation="2"/>
<feComposite in2="hardAlpha" operator="out"/>
<feColorMatrix type="matrix" values="0 0 0 0 0 0 0 0 0 0 0 0 0 0 0 0 0 0 0.15 0"/>
<feBlend mode="normal" in2="effect1_dropShadow_756_537" result="effect2_dropShadow_756_537"/>
<feBlend mode="normal" in="SourceGraphic" in2="effect2_dropShadow_756_537" result="shape"/>
</filter>
<filter id="filter2_d_756_537" x="52" y="49" width="176" height="176" filterUnits="userSpaceOnUse" color-interpolation-filters="sRGB">
<feFlood flood-opacity="0" result="BackgroundImageFix"/>
<feColorMatrix in="SourceAlpha" type="matrix" values="0 0 0 0 0 0 0 0 0 0 0 0 0 0 0 0 0 0 127 0" result="hardAlpha"/>
<feOffset/>
<feGaussianBlur stdDeviation="4"/>
<feComposite in2="hardAlpha" operator="out"/>
<feColorMatrix type="matrix" values="0 0 0 0 0 0 0 0 0 0 0 0 0 0 0 0 0 0 0.15 0"/>
<feBlend mode="normal" in2="BackgroundImageFix" result="effect1_dropShadow_756_537"/>
<feBlend mode="normal" in="SourceGraphic" in2="effect1_dropShadow_756_537" result="shape"/>
</filter>
<linearGradient id="paint0_linear_756_537" x1="12" y1="9" x2="268" y2="265" gradientUnits="userSpaceOnUse">
<stop stop-color="#77FAF6"/>
<stop offset="0.504808" stop-color="#797CFB"/>
<stop offset="1" stop-color="#7C3FFF"/>
</linearGradient>
<radialGradient id="paint1_radial_756_537" cx="0" cy="0" r="1" gradientUnits="userSpaceOnUse" gradientTransform="translate(140 9) rotate(-90) scale(152.5 358.586)">
<stop stop-color="white"/>
<stop offset="1" stop-color="white" stop-opacity="0"/>
</radialGradient>
</defs>
</svg>
