<svg width="280" height="280" viewBox="0 0 280 280" fill="none" xmlns="http://www.w3.org/2000/svg">
<g filter="url(#filter0_dd_756_542)">
<path d="M12 57C12 30.4903 33.4903 9 60 9H220C246.51 9 268 30.4903 268 57V217C268 243.51 246.51 265 220 265H60C33.4903 265 12 243.51 12 217V57Z" fill="url(#paint0_linear_756_542)"/>
<path d="M12 57C12 30.4903 33.4903 9 60 9H220C246.51 9 268 30.4903 268 57V217C268 243.51 246.51 265 220 265H60C33.4903 265 12 243.51 12 217V57Z" fill="white" fill-opacity="0.2"/>
<path d="M12 57C12 30.4903 33.4903 9 60 9H220C246.51 9 268 30.4903 268 57V217C268 243.51 246.51 265 220 265H60C33.4903 265 12 243.51 12 217V57Z" fill="url(#paint1_radial_756_542)" fill-opacity="0.1" style="mix-blend-mode:plus-lighter"/>
</g>
<g filter="url(#filter1_dd_756_542)">
<path d="M220 261V265H60V261H220ZM264 217V57C264 32.6995 244.301 13 220 13H60C35.6995 13 16 32.6995 16 57V217C16 241.301 35.6995 261 60 261V265L59.3799 264.996C33.156 264.664 12 243.303 12 217V57C12 30.4903 33.4903 9 60 9H220C246.51 9 268 30.4903 268 57V217C268 243.51 246.51 265 220 265V261C244.301 261 264 241.301 264 217Z" fill="#FFC9C9" fill-opacity="0.75" style="mix-blend-mode:hard-light" shape-rendering="crispEdges"/>
<path d="M220 261V265H60V261H220ZM264 217V57C264 32.6995 244.301 13 220 13H60C35.6995 13 16 32.6995 16 57V217C16 241.301 35.6995 261 60 261V265L59.3799 264.996C33.156 264.664 12 243.303 12 217V57C12 30.4903 33.4903 9 60 9H220C246.51 9 268 30.4903 268 57V217C268 243.51 246.51 265 220 265V261C244.301 261 264 241.301 264 217Z" fill="white" fill-opacity="0.5" shape-rendering="crispEdges"/>
</g>
<g filter="url(#filter2_d_756_542)">
<path d="M143.663 57C144.089 57.0006 144.349 57.7635 144.589 59.7368C144.776 61.2418 146.013 69.8626 147.344 78.8888C148.671 87.9198 150.12 96.5829 150.558 98.1438C151 99.7044 151.938 102.258 152.64 103.819C153.202 105.061 154.173 106.874 155.024 108.292C155.451 108.168 155.85 108.048 156.197 107.934C157.738 107.425 160.211 106.408 161.692 105.679C163.173 104.949 169.424 101.128 175.587 97.1894C181.743 93.2552 186.831 90.0347 186.896 90.0248C186.957 90.0224 187.057 90.2485 187.117 90.5321C187.182 90.8165 183.907 96.2417 179.842 102.594C175.777 108.945 171.928 115.299 171.29 116.712C170.659 118.104 169.711 120.692 169.163 122.51C169.27 122.577 169.373 122.645 169.475 122.708C171.261 123.811 174.183 125.278 175.969 125.967C177.76 126.656 185.315 128.561 192.81 130.211C200.284 131.859 206.442 133.205 206.508 133.207C206.54 133.207 206.566 133.279 206.585 133.391C217.147 134.936 220 135.486 220 135.92C220 136.346 219.237 136.605 217.263 136.845C215.759 137.032 207.137 138.269 198.11 139.6C189.079 140.927 180.417 142.376 178.856 142.814C177.296 143.257 174.742 144.195 173.181 144.897C172.823 145.059 172.417 145.256 171.986 145.474C172.475 147.516 173.491 150.576 174.258 152.308C175.037 154.061 179.033 160.752 183.167 167.219C187.286 173.669 190.689 178.973 190.735 179.022C190.774 179.062 190.645 179.254 190.447 179.452C190.21 179.689 186.351 177.407 178.994 172.682C172.892 168.763 166.778 164.995 165.412 164.312C164.043 163.631 161.68 162.63 160.165 162.096C158.785 161.613 156.57 160.988 155 160.634C154.743 161.02 154.503 161.39 154.292 161.731C153.19 163.517 151.722 166.439 151.033 168.225C150.773 168.901 150.34 170.398 149.812 172.404C149.311 175.484 148.03 185.049 146.743 195.428C145.274 207.239 144.037 216.941 143.991 216.989C143.942 217.033 143.711 216.944 143.472 216.786C143.229 216.63 141.905 207.198 140.505 195.63C139.676 188.799 138.872 182.7 138.221 178.182C137.332 174.351 136.588 171.351 136.29 170.457C135.804 169.008 134.84 166.63 134.146 165.181C133.591 164.026 132.656 162.341 131.856 161.026C130.592 161.359 129.239 161.762 128.285 162.096C126.77 162.63 124.407 163.631 123.038 164.312C121.672 164.995 115.557 168.763 109.455 172.682C102.099 177.407 98.2407 179.689 98.0026 179.452C97.805 179.254 97.6754 179.062 97.7154 179.022C97.761 178.973 101.164 173.669 105.283 167.219C109.417 160.752 113.413 154.061 114.192 152.308C114.858 150.805 115.707 148.304 116.241 146.334C116.014 146.207 115.806 146.094 115.621 146C114.284 145.327 112.002 144.329 110.555 143.785C109.108 143.241 106.826 142.543 105.488 142.231C104.15 141.922 93.3872 140.464 81.5713 138.999C69.7772 137.533 60.0873 136.297 60.0115 136.248C59.9669 136.2 60.0561 135.968 60.2142 135.728C60.3783 135.484 69.8065 134.162 81.3686 132.762C82.5899 132.614 83.7881 132.464 84.9578 132.319C87.2655 131.802 90.2898 131.13 93.5818 130.405C100.724 128.833 107.847 127.114 109.41 126.583C110.972 126.052 113.439 125.022 114.888 124.292C116.056 123.701 117.766 122.712 119.088 121.874C118.53 120.128 117.72 117.949 117.16 116.712C116.522 115.3 112.673 108.945 108.608 102.594C104.544 96.2424 101.268 90.8178 101.332 90.5321C101.392 90.2485 101.493 90.0224 101.554 90.0248C101.63 90.0416 106.714 93.2594 112.863 97.1894C119.026 101.128 125.277 104.949 126.758 105.679C128.238 106.408 130.711 107.425 132.252 107.934C132.296 107.949 132.343 107.962 132.389 107.977C132.73 107.418 133.037 106.892 133.277 106.453C134.064 105.006 135.25 102.27 135.912 100.373C136.573 98.4803 137.392 95.2858 137.733 93.2794C138.074 91.2727 139.414 82.2899 140.712 73.3155C142.583 60.3647 143.193 57 143.663 57Z" fill="white"/>
</g>
<defs>
<filter id="filter0_dd_756_542" x="0" y="0" width="280" height="280" filterUnits="userSpaceOnUse" color-interpolation-filters="sRGB">
<feFlood flood-opacity="0" result="BackgroundImageFix"/>
<feColorMatrix in="SourceAlpha" type="matrix" values="0 0 0 0 0 0 0 0 0 0 0 0 0 0 0 0 0 0 127 0" result="hardAlpha"/>
<feOffset dy="3"/>
<feGaussianBlur stdDeviation="6"/>
<feComposite in2="hardAlpha" operator="out"/>
<feColorMatrix type="matrix" values="0 0 0 0 0 0 0 0 0 0 0 0 0 0 0 0 0 0 0.25 0"/>
<feBlend mode="normal" in2="BackgroundImageFix" result="effect1_dropShadow_756_542"/>
<feColorMatrix in="SourceAlpha" type="matrix" values="0 0 0 0 0 0 0 0 0 0 0 0 0 0 0 0 0 0 127 0" result="hardAlpha"/>
<feOffset/>
<feGaussianBlur stdDeviation="2"/>
<feComposite in2="hardAlpha" operator="out"/>
<feColorMatrix type="matrix" values="0 0 0 0 0 0 0 0 0 0 0 0 0 0 0 0 0 0 0.15 0"/>
<feBlend mode="normal" in2="effect1_dropShadow_756_542" result="effect2_dropShadow_756_542"/>
<feBlend mode="normal" in="SourceGraphic" in2="effect2_dropShadow_756_542" result="shape"/>
</filter>
<filter id="filter1_dd_756_542" x="0" y="0" width="280" height="280" filterUnits="userSpaceOnUse" color-interpolation-filters="sRGB">
<feFlood flood-opacity="0" result="BackgroundImageFix"/>
<feColorMatrix in="SourceAlpha" type="matrix" values="0 0 0 0 0 0 0 0 0 0 0 0 0 0 0 0 0 0 127 0" result="hardAlpha"/>
<feOffset dy="3"/>
<feGaussianBlur stdDeviation="6"/>
<feComposite in2="hardAlpha" operator="out"/>
<feColorMatrix type="matrix" values="0 0 0 0 0 0 0 0 0 0 0 0 0 0 0 0 0 0 0.25 0"/>
<feBlend mode="normal" in2="BackgroundImageFix" result="effect1_dropShadow_756_542"/>
<feColorMatrix in="SourceAlpha" type="matrix" values="0 0 0 0 0 0 0 0 0 0 0 0 0 0 0 0 0 0 127 0" result="hardAlpha"/>
<feOffset/>
<feGaussianBlur stdDeviation="2"/>
<feComposite in2="hardAlpha" operator="out"/>
<feColorMatrix type="matrix" values="0 0 0 0 0 0 0 0 0 0 0 0 0 0 0 0 0 0 0.15 0"/>
<feBlend mode="normal" in2="effect1_dropShadow_756_542" result="effect2_dropShadow_756_542"/>
<feBlend mode="normal" in="SourceGraphic" in2="effect2_dropShadow_756_542" result="shape"/>
</filter>
<filter id="filter2_d_756_542" x="52" y="49" width="176" height="176" filterUnits="userSpaceOnUse" color-interpolation-filters="sRGB">
<feFlood flood-opacity="0" result="BackgroundImageFix"/>
<feColorMatrix in="SourceAlpha" type="matrix" values="0 0 0 0 0 0 0 0 0 0 0 0 0 0 0 0 0 0 127 0" result="hardAlpha"/>
<feOffset/>
<feGaussianBlur stdDeviation="4"/>
<feComposite in2="hardAlpha" operator="out"/>
<feColorMatrix type="matrix" values="0 0 0 0 0 0 0 0 0 0 0 0 0 0 0 0 0 0 0.15 0"/>
<feBlend mode="normal" in2="BackgroundImageFix" result="effect1_dropShadow_756_542"/>
<feBlend mode="normal" in="SourceGraphic" in2="effect1_dropShadow_756_542" result="shape"/>
</filter>
<linearGradient id="paint0_linear_756_542" x1="12" y1="9" x2="268" y2="265" gradientUnits="userSpaceOnUse">
<stop stop-color="#FA7777"/>
<stop offset="1" stop-color="#7C3FFF"/>
</linearGradient>
<radialGradient id="paint1_radial_756_542" cx="0" cy="0" r="1" gradientUnits="userSpaceOnUse" gradientTransform="translate(140 9) rotate(-90) scale(152.5 358.586)">
<stop stop-color="white"/>
<stop offset="1" stop-color="white" stop-opacity="0"/>
</radialGradient>
</defs>
</svg>
