<svg width="280" height="280" viewBox="0 0 280 280" fill="none" xmlns="http://www.w3.org/2000/svg">
<g filter="url(#filter0_dd_756_547)">
<path d="M12 57C12 30.4903 33.4903 9 60 9H220C246.51 9 268 30.4903 268 57V217C268 243.51 246.51 265 220 265H60C33.4903 265 12 243.51 12 217V57Z" fill="url(#paint0_linear_756_547)"/>
<path d="M12 57C12 30.4903 33.4903 9 60 9H220C246.51 9 268 30.4903 268 57V217C268 243.51 246.51 265 220 265H60C33.4903 265 12 243.51 12 217V57Z" fill="white" fill-opacity="0.2"/>
<path d="M12 57C12 30.4903 33.4903 9 60 9H220C246.51 9 268 30.4903 268 57V217C268 243.51 246.51 265 220 265H60C33.4903 265 12 243.51 12 217V57Z" fill="url(#paint1_radial_756_547)" fill-opacity="0.1" style="mix-blend-mode:plus-lighter"/>
</g>
<g filter="url(#filter1_dd_756_547)">
<path d="M220 261V265H60V261H220ZM264 217V57C264 32.6995 244.301 13 220 13H60C35.6995 13 16 32.6995 16 57V217C16 241.301 35.6995 261 60 261V265L59.3799 264.996C33.156 264.664 12 243.303 12 217V57C12 30.4903 33.4903 9 60 9H220C246.51 9 268 30.4903 268 57V217C268 243.51 246.51 265 220 265V261C244.301 261 264 241.301 264 217Z" fill="#77FAF6" fill-opacity="0.75" style="mix-blend-mode:hard-light" shape-rendering="crispEdges"/>
<path d="M220 261V265H60V261H220ZM264 217V57C264 32.6995 244.301 13 220 13H60C35.6995 13 16 32.6995 16 57V217C16 241.301 35.6995 261 60 261V265L59.3799 264.996C33.156 264.664 12 243.303 12 217V57C12 30.4903 33.4903 9 60 9H220C246.51 9 268 30.4903 268 57V217C268 243.51 246.51 265 220 265V261C244.301 261 264 241.301 264 217Z" fill="white" fill-opacity="0.5" shape-rendering="crispEdges"/>
</g>
<g filter="url(#filter2_d_756_547)">
<path fill-rule="evenodd" clip-rule="evenodd" d="M142.381 73.0183C142.477 73.0044 142.651 72.9863 142.862 73.016C143.034 73.0402 143.371 73.1167 143.684 73.3865L143.816 73.5145L143.96 73.6715L144.058 73.8613C144.101 73.9454 144.127 74.0158 144.134 74.0351C144.145 74.0649 144.153 74.0898 144.158 74.1045C144.167 74.1342 144.175 74.1601 144.179 74.1753C144.188 74.2076 144.197 74.2415 144.204 74.2706C144.22 74.3313 144.239 74.411 144.262 74.5038C144.306 74.6916 144.368 74.9587 144.445 75.2935C144.599 75.9643 144.815 76.9217 145.079 78.0938C145.605 80.4386 146.319 83.6515 147.095 87.173C148.66 94.2834 150.342 101.234 150.833 102.681L151.044 103.274C151.448 104.38 152.023 105.771 152.539 106.902C152.679 106.863 152.812 106.829 152.935 106.793C154.404 106.359 157.07 105.308 158.801 104.472L158.802 104.471C160.51 103.647 163.246 102.03 164.82 100.913C166.445 99.7604 173.653 94.4219 180.854 89.0419L184.401 86.3979C187.617 84.0096 189.867 82.3695 191.413 81.2973C192.435 80.5889 193.197 80.094 193.746 79.795C194.008 79.6519 194.307 79.5062 194.605 79.4215C194.752 79.3796 194.988 79.3266 195.267 79.3407C195.561 79.3557 196.008 79.4546 196.384 79.8301L196.387 79.8331C196.846 80.2956 196.971 80.8775 196.934 81.3613C196.902 81.7843 196.749 82.1598 196.611 82.4391C196.331 83.0063 195.851 83.6826 195.24 84.4619L195.239 84.4612C194.322 85.6392 189.171 92.5174 183.783 99.7698C181.091 103.389 178.485 106.964 176.456 109.806C174.396 112.692 173 114.728 172.659 115.336C171.916 116.667 170.817 119.038 170.242 120.555C169.902 121.456 169.492 122.757 169.145 124.008C170.52 124.695 172.857 125.67 174.319 126.167C175.767 126.659 182.718 128.34 189.827 129.906C193.361 130.684 196.585 131.4 198.932 131.927C200.105 132.19 201.061 132.407 201.728 132.56C202.061 132.637 202.325 132.698 202.51 132.742C202.601 132.764 202.68 132.784 202.739 132.799C202.768 132.806 202.803 132.815 202.837 132.825C202.852 132.829 202.884 132.838 202.921 132.851C202.938 132.857 202.975 132.87 203.02 132.888C203.023 132.889 203.114 132.924 203.231 132.994L203.355 133.076L203.445 133.143L203.524 133.22C203.878 133.569 203.963 133.972 203.987 134.162C204.013 134.368 203.994 134.537 203.98 134.632C203.95 134.826 203.893 134.987 203.855 135.085C203.771 135.296 203.656 135.507 203.535 135.694L203.534 135.693C203.327 136.012 203.055 136.172 203.016 136.196C202.92 136.255 202.83 136.299 202.773 136.325C202.654 136.379 202.525 136.426 202.41 136.466C202.172 136.548 201.86 136.643 201.497 136.746C200.765 136.954 199.741 137.22 198.508 137.525C196.037 138.137 192.677 138.916 189.021 139.719C185.386 140.517 181.789 141.353 178.925 142.056C176.009 142.772 173.972 143.322 173.363 143.552C172.45 143.896 171.023 144.531 169.686 145.181C169.565 145.553 169.437 145.922 169.302 146.288C169.812 148.033 170.498 150.004 171.034 151.215C171.374 151.98 172.501 153.982 174.113 156.681C175.701 159.34 177.705 162.584 179.744 165.773C181.782 168.965 183.644 171.874 185.002 173.991C185.68 175.049 186.232 175.91 186.618 176.508C186.81 176.807 186.96 177.04 187.063 177.198C187.115 177.278 187.154 177.336 187.179 177.374C187.185 177.384 187.19 177.391 187.194 177.396C187.354 177.619 187.429 177.848 187.464 178.045C190.408 182.002 192.3 184.597 193.43 186.255C194.011 187.107 194.428 187.763 194.681 188.25C194.801 188.482 194.932 188.764 195.005 189.056C195.044 189.216 195.254 190.076 194.575 190.755L194.573 190.756C194.111 191.217 193.529 191.342 193.044 191.305C192.62 191.273 192.245 191.12 191.966 190.982C191.399 190.702 190.723 190.221 189.944 189.611C188.766 188.693 181.887 183.541 174.634 178.152L174.633 178.152C171.015 175.46 167.44 172.855 164.598 170.826C161.716 168.769 159.682 167.374 159.071 167.03C157.743 166.288 155.378 165.194 153.861 164.617C152.943 166.257 151.937 168.32 151.422 169.655L151.422 169.656C151.122 170.436 150.502 172.649 149.734 175.698C148.977 178.702 148.1 182.414 147.287 186.111C146.472 189.806 145.732 193.176 145.195 195.632C144.927 196.86 144.709 197.859 144.559 198.555C144.483 198.903 144.425 199.175 144.386 199.361C144.366 199.454 144.352 199.523 144.342 199.569C144.338 199.592 144.335 199.604 144.334 199.61C144.334 199.607 144.335 199.603 144.335 199.599L144.3 199.765C144.202 200.115 144.002 200.356 143.867 200.486C143.69 200.656 143.511 200.749 143.419 200.792C143.227 200.882 143.048 200.922 142.951 200.941C142.788 200.974 142.617 200.991 142.454 200.997L142.295 201C141.857 201 141.535 200.825 141.362 200.703C141.187 200.58 141.07 200.446 141.004 200.364C140.872 200.199 140.784 200.031 140.732 199.925C140.62 199.696 140.517 199.417 140.421 199.13C140.223 198.541 139.985 197.695 139.709 196.62C139.154 194.458 138.412 191.245 137.49 187.011L136.912 184.386C135.565 178.336 134.273 172.969 133.883 171.8C133.422 170.427 132.495 168.135 131.836 166.758L131.502 166.089C131.208 165.518 130.853 164.87 130.487 164.226C129.885 164.006 129.288 163.766 128.697 163.507C126.837 164.021 124.543 164.805 123.188 165.405C122.631 165.653 121.381 166.337 119.629 167.358C117.41 168.96 111.388 173.548 104.491 178.899L101.463 181.254C96.8257 184.865 92.5957 188.15 89.5107 190.537C87.9685 191.731 86.7109 192.701 85.8316 193.375C85.3926 193.712 85.045 193.976 84.8026 194.159C84.6822 194.25 84.5825 194.325 84.5092 194.379C84.4737 194.405 84.4357 194.431 84.4017 194.455C84.3859 194.466 84.3595 194.485 84.3285 194.505C84.3137 194.514 84.2846 194.531 84.2485 194.552C84.2394 194.557 84.1237 194.625 83.9665 194.677L83.689 194.768L83.3971 194.752C82.958 194.729 82.6506 194.534 82.5015 194.419C82.3436 194.298 82.238 194.171 82.1784 194.091C82.0583 193.932 81.9817 193.775 81.9375 193.675C81.8426 193.46 81.7734 193.223 81.7279 193.002C81.6589 192.664 81.7205 192.392 81.7386 192.315C81.7654 192.2 81.7999 192.108 81.8209 192.056C81.8637 191.95 81.9123 191.859 81.9444 191.8C82.0128 191.676 82.0989 191.537 82.1875 191.401C82.3696 191.122 82.6307 190.747 82.952 190.298C83.5983 189.395 84.5341 188.131 85.6875 186.601C87.9968 183.539 91.2021 179.378 94.7653 174.834C98.9418 169.504 102.626 164.701 105.321 161.099C107.382 157.791 108.899 155.268 109.274 154.519C109.918 153.223 110.881 150.947 111.39 149.507C111.687 148.659 112.044 147.444 112.355 146.275C111.582 145.845 110.83 145.447 110.242 145.164C108.863 144.505 106.569 143.576 105.197 143.115C103.851 142.668 97.0374 141.046 89.9878 139.509C85.7551 138.587 82.543 137.846 80.3819 137.291C79.3068 137.015 78.4611 136.777 77.8712 136.58C77.5849 136.484 77.306 136.381 77.0777 136.269C76.9714 136.217 76.8036 136.128 76.6395 135.998C76.5571 135.932 76.4246 135.816 76.3018 135.643C76.1806 135.473 76.0038 135.154 76 134.719V134.705C76 134.499 76.0157 134.267 76.0587 134.049C76.0777 133.953 76.1183 133.772 76.2096 133.578C76.2536 133.484 76.3483 133.302 76.5244 133.122C76.6783 132.965 76.9793 132.73 77.4177 132.662C77.407 132.664 77.3976 132.665 77.3902 132.666C77.3958 132.665 77.4089 132.663 77.4322 132.658C77.4781 132.648 77.5481 132.633 77.6418 132.614C77.8281 132.574 78.0997 132.516 78.4482 132.441C79.1451 132.29 80.1441 132.072 81.372 131.804C83.8274 131.268 87.1957 130.529 90.8887 129.714L90.8895 129.713C94.5867 128.9 98.298 128.023 101.302 127.266C104.351 126.497 106.564 125.878 107.344 125.578C108.478 125.14 110.149 124.341 111.644 123.54C111.168 122.187 110.435 120.335 109.904 119.165C109.297 117.828 108.219 115.801 107.54 114.707C107.22 114.199 105.477 111.855 102.829 108.379C100.864 105.799 98.4386 102.645 95.8217 99.2698L93.1502 95.8331C89.5383 91.1955 86.2529 86.9647 83.8659 83.8796C82.6726 82.3373 81.7024 81.0797 81.0282 80.2005C80.6917 79.7617 80.4267 79.4145 80.2439 79.1723C80.1532 79.052 80.0788 78.9521 80.0252 78.8788C79.9993 78.8435 79.9718 78.8062 79.9482 78.7721C79.9373 78.7565 79.9192 78.7294 79.8994 78.6982C79.8899 78.6833 79.8713 78.6535 79.8506 78.6166C79.8455 78.6076 79.7753 78.4871 79.7233 78.324L79.6342 78.0435L79.6524 77.75C79.6804 77.3145 79.8766 77.0111 79.9909 76.8644C80.1125 76.7083 80.2389 76.604 80.3178 76.545C80.4768 76.4262 80.6334 76.3511 80.7332 76.3072C80.9474 76.2131 81.1825 76.1443 81.4032 76.0991L81.42 76.0961L81.436 76.093C81.7649 76.0329 82.0272 76.0943 82.1037 76.1128C82.215 76.1398 82.3033 76.1743 82.3544 76.1952C82.4588 76.2378 82.5498 76.2849 82.6082 76.3171C82.7324 76.3856 82.8707 76.4721 83.0069 76.561C83.2866 76.7436 83.6612 77.0046 84.1105 77.3263C85.0144 77.9732 86.2784 78.9091 87.8079 80.0625C90.8697 82.3713 95.0271 85.5748 99.5686 89.1357C100.505 89.8692 101.428 90.5862 102.332 91.2897C104.303 92.5395 106.867 94.1719 109.649 95.9505C115.784 99.8711 121.888 103.597 123.258 104.272C124.662 104.963 127.045 105.942 128.499 106.422C129.182 106.646 130.097 106.905 131.044 107.152C131.377 107.037 131.712 106.929 132.048 106.827C132.616 105.636 133.147 104.438 133.448 103.638V103.636C133.678 103.027 134.229 100.992 134.944 98.0755C135.647 95.2119 136.483 91.6144 137.281 87.9787C138.084 84.3234 138.864 80.9633 139.475 78.4924C139.78 77.2594 140.046 76.2353 140.254 75.5031C140.357 75.1406 140.451 74.8277 140.534 74.59C140.573 74.4751 140.621 74.3456 140.675 74.2264C140.701 74.1691 140.743 74.0801 140.803 73.984C140.827 73.9454 140.987 73.6728 141.306 73.465C141.308 73.4633 141.311 73.4613 141.314 73.4596C141.316 73.4586 141.317 73.4569 141.319 73.4558C141.504 73.3361 141.713 73.2239 141.922 73.1426C142.02 73.1045 142.184 73.0469 142.381 73.0183ZM189.029 186.956C189.956 187.655 190.61 188.151 190.906 188.382L190.205 187.845C189.889 187.604 189.493 187.305 189.029 186.956ZM187.177 177.374C187.175 177.372 187.174 177.369 187.172 177.367C187.166 177.359 187.157 177.346 187.144 177.331C187.143 177.329 187.14 177.326 187.137 177.323C187.151 177.34 187.164 177.357 187.177 177.374ZM136.257 163.127C136.281 163.131 136.306 163.134 136.33 163.138C136.288 163.131 136.246 163.124 136.204 163.117C136.222 163.12 136.239 163.124 136.257 163.127ZM145.502 163.131C145.513 163.129 145.525 163.128 145.536 163.127C145.541 163.126 145.546 163.124 145.551 163.123C145.535 163.126 145.519 163.128 145.502 163.131ZM146.826 162.877C146.832 162.875 146.839 162.874 146.846 162.873C146.859 162.87 146.871 162.866 146.884 162.864C146.865 162.868 146.845 162.872 146.826 162.877ZM159.399 117.285C149.181 107.066 132.612 107.066 122.393 117.285C112.175 127.504 112.175 144.072 122.393 154.29C132.612 164.509 149.181 164.509 159.399 154.29C169.618 144.072 169.618 127.504 159.399 117.285ZM123.396 157.297C123.425 157.321 123.454 157.344 123.483 157.367C123.436 157.329 123.39 157.291 123.343 157.253C123.361 157.268 123.378 157.283 123.396 157.297ZM159.434 156.407C159.102 156.706 158.764 156.996 158.422 157.277C158.595 157.135 158.767 156.992 158.938 156.845C159.105 156.702 159.269 156.555 159.434 156.407ZM122.324 156.377C122.335 156.387 122.347 156.397 122.358 156.407C122.327 156.379 122.296 156.351 122.265 156.322C122.284 156.341 122.304 156.359 122.324 156.377ZM159.434 156.407C159.445 156.397 159.457 156.388 159.469 156.377C159.487 156.361 159.505 156.344 159.523 156.327C159.493 156.354 159.463 156.38 159.434 156.407ZM170.736 153.989C170.894 154.268 171.065 154.566 171.246 154.882C170.908 154.294 170.609 153.765 170.358 153.308L170.736 153.989ZM109.912 143.298C109.842 143.267 109.771 143.235 109.699 143.204C109.476 143.107 109.246 143.009 109.013 142.911C109.322 143.04 109.624 143.171 109.912 143.298ZM185.97 138.799C182.385 139.608 179.011 140.412 176.543 141.042C177.777 140.727 179.238 140.37 180.838 139.989C182.438 139.608 184.177 139.203 185.97 138.799ZM113.296 138.445C113.299 138.48 113.303 138.515 113.306 138.55C113.297 138.451 113.288 138.352 113.279 138.253C113.285 138.317 113.29 138.381 113.296 138.445ZM113.176 136.453C113.18 136.615 113.185 136.776 113.192 136.938C113.185 136.759 113.179 136.579 113.175 136.399C113.176 136.417 113.176 136.435 113.176 136.453ZM195.039 132.658C194.857 132.617 194.672 132.576 194.486 132.534L189.491 131.43C191.471 131.866 193.354 132.283 195.039 132.658ZM158.986 114.773C158.97 114.759 158.954 114.744 158.938 114.73C158.908 114.705 158.878 114.681 158.848 114.656C158.894 114.695 158.941 114.733 158.986 114.773ZM158.464 114.333C158.441 114.315 158.419 114.296 158.397 114.278L158.362 114.25C158.396 114.278 158.43 114.305 158.464 114.333ZM142.265 108.094C142.252 108.093 142.239 108.093 142.226 108.092C142.207 108.091 142.187 108.091 142.167 108.09C142.2 108.091 142.232 108.092 142.265 108.094ZM142.096 74.8712C141.982 75.1231 141.775 75.8337 141.496 76.8918C141.776 75.8325 141.983 75.1216 142.097 74.8705L142.096 74.8712Z" fill="white"/>
</g>
<defs>
<filter id="filter0_dd_756_547" x="0" y="0" width="280" height="280" filterUnits="userSpaceOnUse" color-interpolation-filters="sRGB">
<feFlood flood-opacity="0" result="BackgroundImageFix"/>
<feColorMatrix in="SourceAlpha" type="matrix" values="0 0 0 0 0 0 0 0 0 0 0 0 0 0 0 0 0 0 127 0" result="hardAlpha"/>
<feOffset dy="3"/>
<feGaussianBlur stdDeviation="6"/>
<feComposite in2="hardAlpha" operator="out"/>
<feColorMatrix type="matrix" values="0 0 0 0 0 0 0 0 0 0 0 0 0 0 0 0 0 0 0.25 0"/>
<feBlend mode="normal" in2="BackgroundImageFix" result="effect1_dropShadow_756_547"/>
<feColorMatrix in="SourceAlpha" type="matrix" values="0 0 0 0 0 0 0 0 0 0 0 0 0 0 0 0 0 0 127 0" result="hardAlpha"/>
<feOffset/>
<feGaussianBlur stdDeviation="2"/>
<feComposite in2="hardAlpha" operator="out"/>
<feColorMatrix type="matrix" values="0 0 0 0 0 0 0 0 0 0 0 0 0 0 0 0 0 0 0.15 0"/>
<feBlend mode="normal" in2="effect1_dropShadow_756_547" result="effect2_dropShadow_756_547"/>
<feBlend mode="normal" in="SourceGraphic" in2="effect2_dropShadow_756_547" result="shape"/>
</filter>
<filter id="filter1_dd_756_547" x="0" y="0" width="280" height="280" filterUnits="userSpaceOnUse" color-interpolation-filters="sRGB">
<feFlood flood-opacity="0" result="BackgroundImageFix"/>
<feColorMatrix in="SourceAlpha" type="matrix" values="0 0 0 0 0 0 0 0 0 0 0 0 0 0 0 0 0 0 127 0" result="hardAlpha"/>
<feOffset dy="3"/>
<feGaussianBlur stdDeviation="6"/>
<feComposite in2="hardAlpha" operator="out"/>
<feColorMatrix type="matrix" values="0 0 0 0 0 0 0 0 0 0 0 0 0 0 0 0 0 0 0.25 0"/>
<feBlend mode="normal" in2="BackgroundImageFix" result="effect1_dropShadow_756_547"/>
<feColorMatrix in="SourceAlpha" type="matrix" values="0 0 0 0 0 0 0 0 0 0 0 0 0 0 0 0 0 0 127 0" result="hardAlpha"/>
<feOffset/>
<feGaussianBlur stdDeviation="2"/>
<feComposite in2="hardAlpha" operator="out"/>
<feColorMatrix type="matrix" values="0 0 0 0 0 0 0 0 0 0 0 0 0 0 0 0 0 0 0.15 0"/>
<feBlend mode="normal" in2="effect1_dropShadow_756_547" result="effect2_dropShadow_756_547"/>
<feBlend mode="normal" in="SourceGraphic" in2="effect2_dropShadow_756_547" result="shape"/>
</filter>
<filter id="filter2_d_756_547" x="52" y="49" width="176" height="176" filterUnits="userSpaceOnUse" color-interpolation-filters="sRGB">
<feFlood flood-opacity="0" result="BackgroundImageFix"/>
<feColorMatrix in="SourceAlpha" type="matrix" values="0 0 0 0 0 0 0 0 0 0 0 0 0 0 0 0 0 0 127 0" result="hardAlpha"/>
<feOffset/>
<feGaussianBlur stdDeviation="4"/>
<feComposite in2="hardAlpha" operator="out"/>
<feColorMatrix type="matrix" values="0 0 0 0 0 0 0 0 0 0 0 0 0 0 0 0 0 0 0.15 0"/>
<feBlend mode="normal" in2="BackgroundImageFix" result="effect1_dropShadow_756_547"/>
<feBlend mode="normal" in="SourceGraphic" in2="effect1_dropShadow_756_547" result="shape"/>
</filter>
<linearGradient id="paint0_linear_756_547" x1="12" y1="9" x2="268" y2="265" gradientUnits="userSpaceOnUse">
<stop stop-color="#FA7777"/>
<stop offset="1" stop-color="#7C3FFF"/>
</linearGradient>
<radialGradient id="paint1_radial_756_547" cx="0" cy="0" r="1" gradientUnits="userSpaceOnUse" gradientTransform="translate(140 9) rotate(-90) scale(152.5 358.586)">
<stop stop-color="white"/>
<stop offset="1" stop-color="white" stop-opacity="0"/>
</radialGradient>
</defs>
</svg>
