<svg width="280" height="280" viewBox="0 0 280 280" fill="none" xmlns="http://www.w3.org/2000/svg">
<g filter="url(#filter0_dd_756_598)">
<path d="M12 57C12 30.4903 33.4903 9 60 9H220C246.51 9 268 30.4903 268 57V217C268 243.51 246.51 265 220 265H60C33.4903 265 12 243.51 12 217V57Z" fill="url(#paint0_linear_756_598)"/>
<path d="M12 57C12 30.4903 33.4903 9 60 9H220C246.51 9 268 30.4903 268 57V217C268 243.51 246.51 265 220 265H60C33.4903 265 12 243.51 12 217V57Z" fill="white" fill-opacity="0.2"/>
<path d="M12 57C12 30.4903 33.4903 9 60 9H220C246.51 9 268 30.4903 268 57V217C268 243.51 246.51 265 220 265H60C33.4903 265 12 243.51 12 217V57Z" fill="url(#paint1_radial_756_598)" fill-opacity="0.1" style="mix-blend-mode:plus-lighter"/>
</g>
<g filter="url(#filter1_dd_756_598)">
<path d="M220 261V265H60V261H220ZM264 217V57C264 32.6995 244.301 13 220 13H60C35.6995 13 16 32.6995 16 57V217C16 241.301 35.6995 261 60 261V265L59.3799 264.996C33.156 264.664 12 243.303 12 217V57C12 30.4903 33.4903 9 60 9H220C246.51 9 268 30.4903 268 57V217C268 243.51 246.51 265 220 265V261C244.301 261 264 241.301 264 217Z" fill="#C9FFCA" fill-opacity="0.75" style="mix-blend-mode:hard-light" shape-rendering="crispEdges"/>
<path d="M220 261V265H60V261H220ZM264 217V57C264 32.6995 244.301 13 220 13H60C35.6995 13 16 32.6995 16 57V217C16 241.301 35.6995 261 60 261V265L59.3799 264.996C33.156 264.664 12 243.303 12 217V57C12 30.4903 33.4903 9 60 9H220C246.51 9 268 30.4903 268 57V217C268 243.51 246.51 265 220 265V261C244.301 261 264 241.301 264 217Z" fill="white" fill-opacity="0.5" shape-rendering="crispEdges"/>
</g>
<g filter="url(#filter2_d_756_598)">
<path d="M121.677 118.676C132.86 107.493 149.023 103.656 165.354 106.696C168.337 107.252 170.666 109.581 171.222 112.564C174.262 128.895 170.425 145.058 159.242 156.241C148.058 167.425 131.895 171.261 115.565 168.221C112.581 167.666 110.252 165.337 109.697 162.354C106.657 146.023 110.493 129.86 121.677 118.676Z" fill="white"/>
<path d="M152.669 82.2584C134.054 63.6435 103.874 63.643 85.2588 82.2577C66.6438 100.873 66.6438 131.054 85.2588 149.669C103.874 168.284 134.054 168.283 152.669 149.668L159.033 156.032L158.513 156.547C136.519 177.991 101.41 177.991 79.4162 156.547L78.8948 156.033C56.7651 133.903 56.7651 98.0235 78.8948 75.8938L79.4162 75.3793C101.584 53.7658 137.077 53.9377 159.033 75.8945L159.548 76.4151C181.162 98.5834 180.99 134.076 159.033 156.032L152.669 149.668C171.284 131.053 171.284 100.873 152.669 82.2584Z" fill="white"/>
<path d="M194.743 124.332C176.128 105.717 145.947 105.716 127.332 124.331C108.717 142.946 108.717 173.128 127.332 191.743C145.947 210.357 176.128 210.357 194.743 191.742L201.107 198.106L200.586 198.621C178.592 220.065 143.483 220.064 121.489 198.621L120.968 198.106C98.8383 175.977 98.8383 140.097 120.968 117.967L121.489 117.453C143.658 95.8393 179.15 96.0112 201.107 117.968L201.622 118.489C223.235 140.657 223.063 176.149 201.107 198.106L194.743 191.742C213.357 173.127 213.357 142.947 194.743 124.332Z" fill="white"/>
</g>
<defs>
<filter id="filter0_dd_756_598" x="0" y="0" width="280" height="280" filterUnits="userSpaceOnUse" color-interpolation-filters="sRGB">
<feFlood flood-opacity="0" result="BackgroundImageFix"/>
<feColorMatrix in="SourceAlpha" type="matrix" values="0 0 0 0 0 0 0 0 0 0 0 0 0 0 0 0 0 0 127 0" result="hardAlpha"/>
<feOffset dy="3"/>
<feGaussianBlur stdDeviation="6"/>
<feComposite in2="hardAlpha" operator="out"/>
<feColorMatrix type="matrix" values="0 0 0 0 0 0 0 0 0 0 0 0 0 0 0 0 0 0 0.25 0"/>
<feBlend mode="normal" in2="BackgroundImageFix" result="effect1_dropShadow_756_598"/>
<feColorMatrix in="SourceAlpha" type="matrix" values="0 0 0 0 0 0 0 0 0 0 0 0 0 0 0 0 0 0 127 0" result="hardAlpha"/>
<feOffset/>
<feGaussianBlur stdDeviation="2"/>
<feComposite in2="hardAlpha" operator="out"/>
<feColorMatrix type="matrix" values="0 0 0 0 0 0 0 0 0 0 0 0 0 0 0 0 0 0 0.15 0"/>
<feBlend mode="normal" in2="effect1_dropShadow_756_598" result="effect2_dropShadow_756_598"/>
<feBlend mode="normal" in="SourceGraphic" in2="effect2_dropShadow_756_598" result="shape"/>
</filter>
<filter id="filter1_dd_756_598" x="0" y="0" width="280" height="280" filterUnits="userSpaceOnUse" color-interpolation-filters="sRGB">
<feFlood flood-opacity="0" result="BackgroundImageFix"/>
<feColorMatrix in="SourceAlpha" type="matrix" values="0 0 0 0 0 0 0 0 0 0 0 0 0 0 0 0 0 0 127 0" result="hardAlpha"/>
<feOffset dy="3"/>
<feGaussianBlur stdDeviation="6"/>
<feComposite in2="hardAlpha" operator="out"/>
<feColorMatrix type="matrix" values="0 0 0 0 0 0 0 0 0 0 0 0 0 0 0 0 0 0 0.25 0"/>
<feBlend mode="normal" in2="BackgroundImageFix" result="effect1_dropShadow_756_598"/>
<feColorMatrix in="SourceAlpha" type="matrix" values="0 0 0 0 0 0 0 0 0 0 0 0 0 0 0 0 0 0 127 0" result="hardAlpha"/>
<feOffset/>
<feGaussianBlur stdDeviation="2"/>
<feComposite in2="hardAlpha" operator="out"/>
<feColorMatrix type="matrix" values="0 0 0 0 0 0 0 0 0 0 0 0 0 0 0 0 0 0 0.15 0"/>
<feBlend mode="normal" in2="effect1_dropShadow_756_598" result="effect2_dropShadow_756_598"/>
<feBlend mode="normal" in="SourceGraphic" in2="effect2_dropShadow_756_598" result="shape"/>
</filter>
<filter id="filter2_d_756_598" x="52" y="49" width="176" height="176" filterUnits="userSpaceOnUse" color-interpolation-filters="sRGB">
<feFlood flood-opacity="0" result="BackgroundImageFix"/>
<feColorMatrix in="SourceAlpha" type="matrix" values="0 0 0 0 0 0 0 0 0 0 0 0 0 0 0 0 0 0 127 0" result="hardAlpha"/>
<feOffset/>
<feGaussianBlur stdDeviation="4"/>
<feComposite in2="hardAlpha" operator="out"/>
<feColorMatrix type="matrix" values="0 0 0 0 0 0 0 0 0 0 0 0 0 0 0 0 0 0 0.15 0"/>
<feBlend mode="normal" in2="BackgroundImageFix" result="effect1_dropShadow_756_598"/>
<feBlend mode="normal" in="SourceGraphic" in2="effect1_dropShadow_756_598" result="shape"/>
</filter>
<linearGradient id="paint0_linear_756_598" x1="12" y1="9" x2="268" y2="265" gradientUnits="userSpaceOnUse">
<stop stop-color="#63D24B"/>
<stop offset="1" stop-color="#1EB6B1"/>
</linearGradient>
<radialGradient id="paint1_radial_756_598" cx="0" cy="0" r="1" gradientUnits="userSpaceOnUse" gradientTransform="translate(140 9) rotate(-90) scale(152.5 358.586)">
<stop stop-color="white"/>
<stop offset="1" stop-color="white" stop-opacity="0"/>
</radialGradient>
</defs>
</svg>
