<svg width="280" height="280" viewBox="0 0 280 280" fill="none" xmlns="http://www.w3.org/2000/svg">
<g filter="url(#filter0_dd_756_606)">
<path d="M12 57C12 30.4903 33.4903 9 60 9H220C246.51 9 268 30.4903 268 57V217C268 243.51 246.51 265 220 265H60C33.4903 265 12 243.51 12 217V57Z" fill="url(#paint0_linear_756_606)"/>
<path d="M12 57C12 30.4903 33.4903 9 60 9H220C246.51 9 268 30.4903 268 57V217C268 243.51 246.51 265 220 265H60C33.4903 265 12 243.51 12 217V57Z" fill="white" fill-opacity="0.2"/>
<path d="M12 57C12 30.4903 33.4903 9 60 9H220C246.51 9 268 30.4903 268 57V217C268 243.51 246.51 265 220 265H60C33.4903 265 12 243.51 12 217V57Z" fill="url(#paint1_radial_756_606)" fill-opacity="0.1" style="mix-blend-mode:plus-lighter"/>
</g>
<g filter="url(#filter1_dd_756_606)">
<path d="M220 261V265H60V261H220ZM264 217V57C264 32.6995 244.301 13 220 13H60C35.6995 13 16 32.6995 16 57V217C16 241.301 35.6995 261 60 261V265L59.3799 264.996C33.156 264.664 12 243.303 12 217V57C12 30.4903 33.4903 9 60 9H220C246.51 9 268 30.4903 268 57V217C268 243.51 246.51 265 220 265V261C244.301 261 264 241.301 264 217Z" fill="#C9FFCA" fill-opacity="0.75" style="mix-blend-mode:hard-light" shape-rendering="crispEdges"/>
<path d="M220 261V265H60V261H220ZM264 217V57C264 32.6995 244.301 13 220 13H60C35.6995 13 16 32.6995 16 57V217C16 241.301 35.6995 261 60 261V265L59.3799 264.996C33.156 264.664 12 243.303 12 217V57C12 30.4903 33.4903 9 60 9H220C246.51 9 268 30.4903 268 57V217C268 243.51 246.51 265 220 265V261C244.301 261 264 241.301 264 217Z" fill="white" fill-opacity="0.5" shape-rendering="crispEdges"/>
</g>
<g filter="url(#filter2_d_756_606)">
<path d="M146.509 139.167C90.0674 100.649 112.011 75.9298 118.679 58.7625C101.382 103.295 136.109 114.75 171.059 143.996C204.987 172.387 175.652 212.264 173.91 214.569C173.858 214.639 173.83 214.674 173.83 214.674C173.83 214.674 173.858 214.639 173.91 214.569C175.546 212.389 201.208 176.497 146.509 139.167Z" fill="white"/>
<path d="M118.841 58.3481C119.046 58.4145 119.163 58.6121 119.129 58.8138L119.106 58.8997L118.711 59.9325C114.738 70.5405 113.791 79.2062 115.101 86.6645C116.454 94.3619 120.218 100.816 125.627 106.819C131.04 112.828 138.087 118.371 145.986 124.254C153.877 130.129 162.617 136.341 171.366 143.662C188.482 157.985 189.642 175.228 186.305 189.146C182.973 203.039 175.161 213.644 174.275 214.816C174.248 214.851 174.227 214.879 174.213 214.897C174.206 214.907 174.2 214.914 174.196 214.919C174.194 214.921 174.193 214.923 174.192 214.925L174.19 214.927C174.036 215.123 173.751 215.169 173.552 215.03C173.354 214.891 173.318 214.619 173.471 214.422L173.471 214.422C173.472 214.421 173.472 214.419 173.474 214.417C173.477 214.413 173.482 214.407 173.489 214.399C173.501 214.382 173.521 214.357 173.546 214.323C174.341 213.263 181.096 203.844 180.881 190.074C180.666 176.326 173.5 158.133 146.236 139.526C117.969 120.235 109.22 104.326 108.474 90.9994C108.102 84.3456 109.728 78.377 111.854 73.0113C112.916 70.3299 114.105 67.7938 115.233 65.4008C116.363 63.0025 117.428 60.7538 118.254 58.6255C118.343 58.3967 118.606 58.2724 118.841 58.3481ZM115.545 66.8282C114.578 68.8913 113.594 71.0412 112.702 73.2918C110.602 78.5927 109.019 84.4304 109.382 90.9169C110.108 103.871 118.609 119.58 146.783 138.808C174.218 157.53 181.571 175.949 181.791 190.025C181.882 195.875 180.738 200.956 179.314 204.976C181.56 200.67 183.939 195.154 185.418 188.983C188.702 175.289 187.565 158.398 170.753 144.33C162.028 137.029 153.32 130.841 145.411 124.952C137.51 119.069 130.402 113.482 124.928 107.405C119.448 101.322 115.59 94.7332 114.204 86.844C113.173 80.9758 113.514 74.4112 115.545 66.8282Z" fill="white"/>
<path d="M141.594 149.312C147.191 152.366 152.058 155.433 156.267 158.5C169.248 167.96 134.931 161.887 119.841 155.178C76.5506 135.931 104.649 92.1336 104.649 92.1336C104.649 92.1336 90.6333 121.5 141.594 149.312Z" fill="white"/>
<path d="M104.274 91.8933C104.401 91.6954 104.659 91.6297 104.865 91.7437C105.07 91.858 105.152 92.1127 105.051 92.3249L105.05 92.3258L105.049 92.3277C105.048 92.3303 105.046 92.3349 105.043 92.341C105.038 92.3533 105.029 92.3728 105.018 92.3989C104.994 92.4513 104.96 92.5317 104.916 92.6383C104.83 92.8516 104.708 93.1712 104.569 93.5896C104.292 94.4271 103.949 95.6599 103.695 97.2278C103.186 100.363 103.027 104.839 104.441 110.179C107.268 120.846 116.401 135.055 141.807 148.92C147.418 151.983 152.303 155.061 156.529 158.14C157.353 158.74 158.001 159.288 158.483 159.786C158.96 160.28 159.296 160.747 159.464 161.191C159.637 161.649 159.638 162.104 159.404 162.505C159.183 162.886 158.792 163.147 158.34 163.329C157.44 163.691 156.073 163.833 154.422 163.821C152.755 163.809 150.743 163.639 148.522 163.344C139.646 162.165 127.251 158.96 119.659 155.585C108.759 150.739 102.313 144.327 98.8059 137.409C95.3016 130.496 94.7543 123.122 95.5681 116.385C96.3818 109.649 98.559 103.528 100.528 99.0972C101.513 96.8803 102.447 95.0821 103.136 93.8374C103.48 93.215 103.763 92.7301 103.961 92.4006C104.06 92.2358 104.138 92.1097 104.191 92.0244C104.217 91.9818 104.238 91.9489 104.252 91.9269C104.258 91.9164 104.263 91.9083 104.267 91.9026C104.269 91.8997 104.27 91.8966 104.271 91.8951L104.273 91.8942C104.273 91.8937 104.274 91.8929 104.649 92.1336L104.274 91.8933ZM103.024 95.9491C102.512 96.945 101.935 98.1243 101.342 99.459C99.395 103.841 97.253 109.872 96.4534 116.491C95.654 123.109 96.1988 130.294 99.6014 137.006C103.001 143.712 109.276 149.994 120.021 154.771C127.519 158.104 139.828 161.29 148.639 162.461C150.839 162.753 152.811 162.917 154.428 162.929C156.061 162.941 157.28 162.795 158.007 162.502C158.369 162.356 158.553 162.196 158.634 162.057C158.702 161.939 158.731 161.774 158.63 161.506C158.523 161.224 158.28 160.859 157.842 160.406C157.408 159.957 156.802 159.442 156.004 158.86C151.813 155.807 146.962 152.749 141.38 149.702C115.826 135.756 106.486 121.376 103.58 110.408C102.129 104.93 102.289 100.325 102.815 97.0855C102.88 96.6858 102.95 96.3064 103.024 95.9491Z" fill="white"/>
</g>
<defs>
<filter id="filter0_dd_756_606" x="0" y="0" width="280" height="280" filterUnits="userSpaceOnUse" color-interpolation-filters="sRGB">
<feFlood flood-opacity="0" result="BackgroundImageFix"/>
<feColorMatrix in="SourceAlpha" type="matrix" values="0 0 0 0 0 0 0 0 0 0 0 0 0 0 0 0 0 0 127 0" result="hardAlpha"/>
<feOffset dy="3"/>
<feGaussianBlur stdDeviation="6"/>
<feComposite in2="hardAlpha" operator="out"/>
<feColorMatrix type="matrix" values="0 0 0 0 0 0 0 0 0 0 0 0 0 0 0 0 0 0 0.25 0"/>
<feBlend mode="normal" in2="BackgroundImageFix" result="effect1_dropShadow_756_606"/>
<feColorMatrix in="SourceAlpha" type="matrix" values="0 0 0 0 0 0 0 0 0 0 0 0 0 0 0 0 0 0 127 0" result="hardAlpha"/>
<feOffset/>
<feGaussianBlur stdDeviation="2"/>
<feComposite in2="hardAlpha" operator="out"/>
<feColorMatrix type="matrix" values="0 0 0 0 0 0 0 0 0 0 0 0 0 0 0 0 0 0 0.15 0"/>
<feBlend mode="normal" in2="effect1_dropShadow_756_606" result="effect2_dropShadow_756_606"/>
<feBlend mode="normal" in="SourceGraphic" in2="effect2_dropShadow_756_606" result="shape"/>
</filter>
<filter id="filter1_dd_756_606" x="0" y="0" width="280" height="280" filterUnits="userSpaceOnUse" color-interpolation-filters="sRGB">
<feFlood flood-opacity="0" result="BackgroundImageFix"/>
<feColorMatrix in="SourceAlpha" type="matrix" values="0 0 0 0 0 0 0 0 0 0 0 0 0 0 0 0 0 0 127 0" result="hardAlpha"/>
<feOffset dy="3"/>
<feGaussianBlur stdDeviation="6"/>
<feComposite in2="hardAlpha" operator="out"/>
<feColorMatrix type="matrix" values="0 0 0 0 0 0 0 0 0 0 0 0 0 0 0 0 0 0 0.25 0"/>
<feBlend mode="normal" in2="BackgroundImageFix" result="effect1_dropShadow_756_606"/>
<feColorMatrix in="SourceAlpha" type="matrix" values="0 0 0 0 0 0 0 0 0 0 0 0 0 0 0 0 0 0 127 0" result="hardAlpha"/>
<feOffset/>
<feGaussianBlur stdDeviation="2"/>
<feComposite in2="hardAlpha" operator="out"/>
<feColorMatrix type="matrix" values="0 0 0 0 0 0 0 0 0 0 0 0 0 0 0 0 0 0 0.15 0"/>
<feBlend mode="normal" in2="effect1_dropShadow_756_606" result="effect2_dropShadow_756_606"/>
<feBlend mode="normal" in="SourceGraphic" in2="effect2_dropShadow_756_606" result="shape"/>
</filter>
<filter id="filter2_d_756_606" x="52" y="49" width="176" height="176" filterUnits="userSpaceOnUse" color-interpolation-filters="sRGB">
<feFlood flood-opacity="0" result="BackgroundImageFix"/>
<feColorMatrix in="SourceAlpha" type="matrix" values="0 0 0 0 0 0 0 0 0 0 0 0 0 0 0 0 0 0 127 0" result="hardAlpha"/>
<feOffset/>
<feGaussianBlur stdDeviation="4"/>
<feComposite in2="hardAlpha" operator="out"/>
<feColorMatrix type="matrix" values="0 0 0 0 0 0 0 0 0 0 0 0 0 0 0 0 0 0 0.15 0"/>
<feBlend mode="normal" in2="BackgroundImageFix" result="effect1_dropShadow_756_606"/>
<feBlend mode="normal" in="SourceGraphic" in2="effect1_dropShadow_756_606" result="shape"/>
</filter>
<linearGradient id="paint0_linear_756_606" x1="12" y1="9" x2="268" y2="265" gradientUnits="userSpaceOnUse">
<stop stop-color="#FC69FF"/>
<stop offset="1" stop-color="#7C3FFF"/>
</linearGradient>
<radialGradient id="paint1_radial_756_606" cx="0" cy="0" r="1" gradientUnits="userSpaceOnUse" gradientTransform="translate(140 9) rotate(-90) scale(152.5 358.586)">
<stop stop-color="white"/>
<stop offset="1" stop-color="white" stop-opacity="0"/>
</radialGradient>
</defs>
</svg>
