<svg width="280" height="280" viewBox="0 0 280 280" fill="none" xmlns="http://www.w3.org/2000/svg">
<g filter="url(#filter0_dd_756_642)">
<path d="M12 57C12 30.4903 33.4903 9 60 9H220C246.51 9 268 30.4903 268 57V217C268 243.51 246.51 265 220 265H60C33.4903 265 12 243.51 12 217V57Z" fill="url(#paint0_linear_756_642)"/>
<path d="M12 57C12 30.4903 33.4903 9 60 9H220C246.51 9 268 30.4903 268 57V217C268 243.51 246.51 265 220 265H60C33.4903 265 12 243.51 12 217V57Z" fill="white" fill-opacity="0.2"/>
<path d="M12 57C12 30.4903 33.4903 9 60 9H220C246.51 9 268 30.4903 268 57V217C268 243.51 246.51 265 220 265H60C33.4903 265 12 243.51 12 217V57Z" fill="url(#paint1_radial_756_642)" fill-opacity="0.1" style="mix-blend-mode:plus-lighter"/>
</g>
<g filter="url(#filter1_dd_756_642)">
<path d="M220 261V265H60V261H220ZM264 217V57C264 32.6995 244.301 13 220 13H60C35.6995 13 16 32.6995 16 57V217C16 241.301 35.6995 261 60 261V265L59.3799 264.996C33.156 264.664 12 243.303 12 217V57C12 30.4903 33.4903 9 60 9H220C246.51 9 268 30.4903 268 57V217C268 243.51 246.51 265 220 265V261C244.301 261 264 241.301 264 217Z" fill="#C9FFCA" fill-opacity="0.75" style="mix-blend-mode:hard-light" shape-rendering="crispEdges"/>
<path d="M220 261V265H60V261H220ZM264 217V57C264 32.6995 244.301 13 220 13H60C35.6995 13 16 32.6995 16 57V217C16 241.301 35.6995 261 60 261V265L59.3799 264.996C33.156 264.664 12 243.303 12 217V57C12 30.4903 33.4903 9 60 9H220C246.51 9 268 30.4903 268 57V217C268 243.51 246.51 265 220 265V261C244.301 261 264 241.301 264 217Z" fill="white" fill-opacity="0.5" shape-rendering="crispEdges"/>
</g>
<g filter="url(#filter2_d_756_642)">
<path d="M189.753 155.205C189.621 155.862 189.326 156.5 188.868 157.069L145.733 210.656C143.638 213.259 139.243 213.259 137.148 210.656L108.753 175.379C109.589 175.808 110.462 176.223 111.369 176.61C119.164 179.939 129.552 181.376 140.133 174.253C145.434 170.683 150.096 166.987 154.426 163.706C158.774 160.412 162.782 157.541 166.844 155.54C170.891 153.547 174.957 152.435 179.422 152.63C182.576 152.768 185.976 153.56 189.753 155.205Z" fill="white"/>
<path fill-rule="evenodd" clip-rule="evenodd" d="M135.438 63.9267C137.829 60.5462 142.845 60.5469 145.236 63.9277L194.462 133.536C194.622 133.762 194.764 133.997 194.889 134.238C194.467 133.937 194.035 133.638 193.596 133.343C190.3 131.13 186.486 129.124 181.903 128.354C172.677 126.806 160.757 130.322 144.091 145.963C128.216 160.86 115.457 162.716 106.629 160.871C103.39 160.194 100.646 159.01 98.4373 157.75L86.2127 140.464C84.7447 138.388 84.744 135.612 86.2117 133.536L135.438 63.9267ZM155.207 101.257C147.199 101.257 140.707 107.749 140.707 115.757C140.707 123.765 147.199 130.257 155.207 130.257C163.215 130.257 169.707 123.765 169.707 115.757C169.707 107.749 163.215 101.257 155.207 101.257Z" fill="white"/>
</g>
<defs>
<filter id="filter0_dd_756_642" x="0" y="0" width="280" height="280" filterUnits="userSpaceOnUse" color-interpolation-filters="sRGB">
<feFlood flood-opacity="0" result="BackgroundImageFix"/>
<feColorMatrix in="SourceAlpha" type="matrix" values="0 0 0 0 0 0 0 0 0 0 0 0 0 0 0 0 0 0 127 0" result="hardAlpha"/>
<feOffset dy="3"/>
<feGaussianBlur stdDeviation="6"/>
<feComposite in2="hardAlpha" operator="out"/>
<feColorMatrix type="matrix" values="0 0 0 0 0 0 0 0 0 0 0 0 0 0 0 0 0 0 0.25 0"/>
<feBlend mode="normal" in2="BackgroundImageFix" result="effect1_dropShadow_756_642"/>
<feColorMatrix in="SourceAlpha" type="matrix" values="0 0 0 0 0 0 0 0 0 0 0 0 0 0 0 0 0 0 127 0" result="hardAlpha"/>
<feOffset/>
<feGaussianBlur stdDeviation="2"/>
<feComposite in2="hardAlpha" operator="out"/>
<feColorMatrix type="matrix" values="0 0 0 0 0 0 0 0 0 0 0 0 0 0 0 0 0 0 0.15 0"/>
<feBlend mode="normal" in2="effect1_dropShadow_756_642" result="effect2_dropShadow_756_642"/>
<feBlend mode="normal" in="SourceGraphic" in2="effect2_dropShadow_756_642" result="shape"/>
</filter>
<filter id="filter1_dd_756_642" x="0" y="0" width="280" height="280" filterUnits="userSpaceOnUse" color-interpolation-filters="sRGB">
<feFlood flood-opacity="0" result="BackgroundImageFix"/>
<feColorMatrix in="SourceAlpha" type="matrix" values="0 0 0 0 0 0 0 0 0 0 0 0 0 0 0 0 0 0 127 0" result="hardAlpha"/>
<feOffset dy="3"/>
<feGaussianBlur stdDeviation="6"/>
<feComposite in2="hardAlpha" operator="out"/>
<feColorMatrix type="matrix" values="0 0 0 0 0 0 0 0 0 0 0 0 0 0 0 0 0 0 0.25 0"/>
<feBlend mode="normal" in2="BackgroundImageFix" result="effect1_dropShadow_756_642"/>
<feColorMatrix in="SourceAlpha" type="matrix" values="0 0 0 0 0 0 0 0 0 0 0 0 0 0 0 0 0 0 127 0" result="hardAlpha"/>
<feOffset/>
<feGaussianBlur stdDeviation="2"/>
<feComposite in2="hardAlpha" operator="out"/>
<feColorMatrix type="matrix" values="0 0 0 0 0 0 0 0 0 0 0 0 0 0 0 0 0 0 0.15 0"/>
<feBlend mode="normal" in2="effect1_dropShadow_756_642" result="effect2_dropShadow_756_642"/>
<feBlend mode="normal" in="SourceGraphic" in2="effect2_dropShadow_756_642" result="shape"/>
</filter>
<filter id="filter2_d_756_642" x="52" y="49" width="176" height="176" filterUnits="userSpaceOnUse" color-interpolation-filters="sRGB">
<feFlood flood-opacity="0" result="BackgroundImageFix"/>
<feColorMatrix in="SourceAlpha" type="matrix" values="0 0 0 0 0 0 0 0 0 0 0 0 0 0 0 0 0 0 127 0" result="hardAlpha"/>
<feOffset/>
<feGaussianBlur stdDeviation="4"/>
<feComposite in2="hardAlpha" operator="out"/>
<feColorMatrix type="matrix" values="0 0 0 0 0 0 0 0 0 0 0 0 0 0 0 0 0 0 0.15 0"/>
<feBlend mode="normal" in2="BackgroundImageFix" result="effect1_dropShadow_756_642"/>
<feBlend mode="normal" in="SourceGraphic" in2="effect1_dropShadow_756_642" result="shape"/>
</filter>
<linearGradient id="paint0_linear_756_642" x1="12" y1="9" x2="268" y2="265" gradientUnits="userSpaceOnUse">
<stop stop-color="#FC69FF"/>
<stop offset="1" stop-color="#7C3FFF"/>
</linearGradient>
<radialGradient id="paint1_radial_756_642" cx="0" cy="0" r="1" gradientUnits="userSpaceOnUse" gradientTransform="translate(140 9) rotate(-90) scale(152.5 358.586)">
<stop stop-color="white"/>
<stop offset="1" stop-color="white" stop-opacity="0"/>
</radialGradient>
</defs>
</svg>
